<svg width="100" height="100" viewBox="0 0 100 100" fill="none" xmlns="http://www.w3.org/2000/svg">
<path d="M54.6875 82.8125H82.8125V54.6875H54.6875V82.8125ZM57.8125 57.8125H79.6875V79.6875H57.8125V57.8125Z" fill="currentColor"/>
<path d="M85.9375 48.4375V39.0625H76.5625V48.4375H73.4375V39.0625H67.5547C69.2766 36.9203 70.3125 34.2047 70.3125 31.25C70.3125 27.5516 68.6641 24.1891 66.0172 21.875H78.125C78.9859 21.875 79.6875 22.5766 79.6875 23.4375V26.85C77.8734 27.4969 76.5625 29.2156 76.5625 31.25C76.5625 33.8344 78.6656 35.9375 81.25 35.9375C83.8344 35.9375 85.9375 33.8344 85.9375 31.25C85.9375 29.2156 84.6266 27.4969 82.8125 26.85V23.4375C82.8125 20.8531 80.7094 18.75 78.125 18.75H61.4125C60.8516 17.5672 60.1016 16.5141 59.1906 15.625H90.625C91.4859 15.625 92.1875 16.3266 92.1875 17.1875V20.6C90.3734 21.2469 89.0625 22.9656 89.0625 25C89.0625 27.5844 91.1656 29.6875 93.75 29.6875C96.3344 29.6875 98.4375 27.5844 98.4375 25C98.4375 22.9656 97.1266 21.2469 95.3125 20.6V17.1875C95.3125 14.6031 93.2094 12.5 90.625 12.5H51.5625V12.5219C51.4437 12.5219 51.3297 12.5016 51.2094 12.5062C49.7812 6.16875 44.1391 1.5625 37.5 1.5625C31.9484 1.5625 26.9969 4.79531 24.725 9.75313C23.7984 9.50156 22.8453 9.375 21.875 9.375C16.2828 9.375 11.6562 13.5953 11.0188 19.1391C5.54688 20.5141 1.5625 25.5094 1.5625 31.25C1.5625 35.8641 4.08281 39.8937 7.8125 42.0594V78.125C7.8125 80.7094 9.91562 82.8125 12.5 82.8125H20.6C21.2469 84.6266 22.9656 85.9375 25 85.9375C27.5844 85.9375 29.6875 83.8344 29.6875 81.25C29.6875 78.6656 27.5844 76.5625 25 76.5625C22.9656 76.5625 21.2469 77.8734 20.6 79.6875H12.5C11.6391 79.6875 10.9375 78.9859 10.9375 78.125V43.3391C11.9391 43.5984 12.9812 43.75 14.0625 43.75V65.625C14.0625 68.2094 16.1656 70.3125 18.75 70.3125H23.725C24.3719 72.1266 26.0906 73.4375 28.125 73.4375C30.7094 73.4375 32.8125 71.3344 32.8125 68.75C32.8125 66.1656 30.7094 64.0625 28.125 64.0625C26.0906 64.0625 24.3719 65.3734 23.725 67.1875H18.75C17.8891 67.1875 17.1875 66.4859 17.1875 65.625V43.75H20.3125V53.125C20.3125 55.7094 22.4156 57.8125 25 57.8125H26.85C27.4969 59.6266 29.2156 60.9375 31.25 60.9375C33.8344 60.9375 35.9375 58.8344 35.9375 56.25C35.9375 53.6656 33.8344 51.5625 31.25 51.5625C29.2156 51.5625 27.4969 52.8734 26.85 54.6875H25C24.1391 54.6875 23.4375 53.9859 23.4375 53.125V43.75H51.5625V48.4375C49.8391 48.4375 48.4375 49.8391 48.4375 51.5625H39.0625V60.9375H48.4375V64.0625H39.0625V73.4375H48.4375V76.5625H39.0625V85.9375H48.4375C48.4375 87.6609 49.8391 89.0625 51.5625 89.0625V98.4375H60.9375V89.0625H64.0625V98.4375H73.4375V89.0625H76.5625V98.4375H85.9375V89.0625C87.6609 89.0625 89.0625 87.6609 89.0625 85.9375H98.4375V76.5625H89.0625V73.4375H98.4375V64.0625H89.0625V60.9375H98.4375V51.5625H89.0625C89.0625 49.8391 87.6609 48.4375 85.9375 48.4375ZM81.25 32.8125C80.3891 32.8125 79.6875 32.1109 79.6875 31.25C79.6875 30.3891 80.3891 29.6875 81.25 29.6875C82.1109 29.6875 82.8125 30.3891 82.8125 31.25C82.8125 32.1109 82.1109 32.8125 81.25 32.8125ZM93.75 26.5625C92.8891 26.5625 92.1875 25.8609 92.1875 25C92.1875 24.1391 92.8891 23.4375 93.75 23.4375C94.6109 23.4375 95.3125 24.1391 95.3125 25C95.3125 25.8609 94.6109 26.5625 93.75 26.5625ZM25 79.6875C25.8609 79.6875 26.5625 80.3891 26.5625 81.25C26.5625 82.1109 25.8609 82.8125 25 82.8125C24.1391 82.8125 23.4375 82.1109 23.4375 81.25C23.4375 80.3891 24.1391 79.6875 25 79.6875ZM28.125 67.1875C28.9859 67.1875 29.6875 67.8891 29.6875 68.75C29.6875 69.6109 28.9859 70.3125 28.125 70.3125C27.2641 70.3125 26.5625 69.6109 26.5625 68.75C26.5625 67.8891 27.2641 67.1875 28.125 67.1875ZM31.25 54.6875C32.1109 54.6875 32.8125 55.3891 32.8125 56.25C32.8125 57.1109 32.1109 57.8125 31.25 57.8125C30.3891 57.8125 29.6875 57.1109 29.6875 56.25C29.6875 55.3891 30.3891 54.6875 31.25 54.6875ZM42.1875 57.8125V54.6875H48.4375V57.8125H42.1875ZM42.1875 70.3125V67.1875H48.4375V70.3125H42.1875ZM42.1875 82.8125V79.6875H48.4375V82.8125H42.1875ZM79.6875 42.1875H82.8125V48.4375H79.6875V42.1875ZM70.3125 48.4375H67.1875V42.1875H70.3125V48.4375ZM64.0625 42.0594V48.4375H60.9375V43.3391C62.0469 43.0516 63.0953 42.6203 64.0625 42.0594ZM4.6875 31.25C4.6875 26.6219 8.14375 22.6375 12.7266 21.9828L14.0625 21.6672V20.3125C14.0625 16.0047 17.5672 12.5 21.875 12.5C22.9562 12.5 24.0078 12.7203 25.0016 13.1562L26.5766 13.8453L27.1141 12.2125C28.5922 7.7125 32.7656 4.6875 37.5 4.6875C43.0703 4.6875 47.7406 8.85781 48.3625 14.3906L48.5484 16.0469L50.1891 15.7547C50.6781 15.6672 51.1266 15.625 51.5625 15.625C55.0094 15.625 58.0094 17.8359 59.0266 21.1266L59.2859 21.9625L60.1344 22.1781C64.2875 23.2375 67.1875 26.9688 67.1875 31.25C67.1875 36.4203 62.9828 40.625 57.8125 40.625H14.0625C8.89219 40.625 4.6875 36.4203 4.6875 31.25ZM54.6875 43.75H57.8125V48.4375H54.6875V43.75ZM57.8125 95.3125H54.6875V89.0625H57.8125V95.3125ZM70.3125 95.3125H67.1875V89.0625H70.3125V95.3125ZM82.8125 95.3125H79.6875V89.0625H82.8125V95.3125ZM51.5625 85.9375V51.5625H85.9375L85.9391 85.9375H51.5625ZM95.3125 79.6875V82.8125H89.0625V79.6875H95.3125ZM95.3125 67.1875V70.3125H89.0625V67.1875H95.3125ZM95.3125 54.6875V57.8125H89.0625V54.6875H95.3125Z" fill="currentColor"/>
<path d="M25.0484 31.25H31.2016L32.8594 37.8797L35.8906 37.1219L30.9078 17.1875H25.3422L20.3594 37.1203L23.3906 37.8781L25.0484 31.25ZM28.4672 20.3125L30.4203 28.125H25.8297L27.7828 20.3125H28.4672Z" fill="currentColor"/>
<path d="M48.4375 34.375H45.3125V20.3125H48.4375V17.1875H39.0625V20.3125H42.1875V34.375H39.0625V37.5H48.4375V34.375Z" fill="currentColor"/>
</svg>
