<svg width="24" height="24" viewBox="0 0 24 24" fill="none" xmlns="http://www.w3.org/2000/svg">
<path d="M19.2372 9.00576V4.76324H14.9946L12.0004 1.76904L9.00625 4.76324H4.76373V9.00576L1.76953 12L4.76373 14.9942V19.2367H9.00625L12.0004 22.2309L14.9946 19.2367H19.2372V14.9942L22.2314 12L19.2372 9.00576ZM17.428 14.2433V17.4275H14.2438L12.0004 19.6709L9.75706 17.4275H6.57291V14.2433L4.32952 12L6.57291 9.75658V6.57242H9.75706L12.0004 4.32903L14.2438 6.57242H17.428V9.75658L19.6714 12L17.428 14.2433ZM12.0004 7.02471V16.9752C14.7414 16.9752 16.9757 14.7409 16.9757 12C16.9757 9.25905 14.7414 7.02471 12.0004 7.02471Z" fill="currentColor"/>
</svg>
