<svg width="24" height="24" viewBox="0 0 24 24" fill="none" xmlns="http://www.w3.org/2000/svg">
<path d="M5.89844 12.0586C5.89844 11.1406 6.26562 10.6406 6.91016 10.6406C7.49219 10.6406 7.83984 11.0625 7.84375 11.6445H9.07812V11.4922C9.07812 10.3398 8.16797 9.57422 6.89844 9.57422C5.41406 9.57422 4.58203 10.5312 4.58203 12.0586V12.6211C4.58203 14.1406 5.41406 15.0977 6.89844 15.0977C8.16406 15.0977 9.07812 14.3398 9.07812 13.2109V13.0547H7.84375C7.83984 13.6172 7.49219 14.0312 6.91016 14.0312C6.26562 14.0312 5.89844 13.5352 5.89844 12.6289V12.0586ZM10.6836 15L11.0312 13.7773H12.6797L13.0234 15H14.3984L12.6914 9.66797H11.1133L9.39453 15H10.6836ZM11.8945 10.8242L12.4492 12.8438H11.2695L11.8359 10.8242H11.8945ZM14.957 9.66797V15H17.0508C18.6992 15 19.4609 13.9727 19.4609 12.3125C19.4609 10.668 18.7188 9.66797 17.0508 9.66797H14.957ZM16.25 10.6914H16.8477C17.8477 10.6914 18.1367 11.4062 18.1367 12.3438C18.1367 13.6602 17.5938 13.9766 16.8477 13.9766H16.25V10.6914Z" fill="currentColor"/>
<rect x="2.75" y="2.75" width="18.5" height="18.5" rx="0.75" stroke="currentColor" stroke-width="1.5" stroke-linecap="square" stroke-linejoin="round"/>
</svg>
