<svg xmlns="http://www.w3.org/2000/svg" xmlns:xlink="http://www.w3.org/1999/xlink" version="1.1" width="1000" height="1000" viewBox="0 0 1000 1000" xml:space="preserve">
<desc>Created with Fabric.js 3.5.0</desc>
<defs>
</defs>
<rect x="0" y="0" width="100%" height="100%" fill="rgba(255,255,255,0)"/>
<g transform="matrix(46.4894 0 0 46.4894 394.6818 685.13)" id="253280" clip-path="url(#CLIPPATH_16)">
<clipPath id="CLIPPATH_16">
	<rect transform="matrix(1 0 0 1 0.0007 0)" id="clip0_2421_10266" x="-12" y="-12" rx="2" ry="2" width="24" height="24"/>
</clipPath>
<path style="stroke: currentColor; stroke-width: 2; stroke-dasharray: none; stroke-linecap: round; stroke-dashoffset: 0; stroke-linejoin: round; stroke-miterlimit: 4; is-custom-font: none; font-file-url: none; fill: none; fill-rule: nonzero; opacity: 1;" vector-effect="non-scaling-stroke" transform=" translate(-11.9993, -12)" d="M 17.7547 16.6037 C 14.576 19.1467 9.42261 19.1467 6.24393 16.6037 C 3.06525 14.0608 3.06525 9.93828 6.24393 7.39622 C 9.42261 4.85328 14.576 4.85328 17.7547 7.39622 C 20.9333 9.93917 20.9333 14.0617 17.7547 16.6037" stroke-linecap="round"/>
</g>
<g transform="matrix(37.6049 0 0 37.6049 648.1361 314.3114)" id="726094">
<path style="stroke: none; stroke-width: 1; stroke-dasharray: none; stroke-linecap: butt; stroke-dashoffset: 0; stroke-linejoin: miter; stroke-miterlimit: 4; is-custom-font: none; font-file-url: none; fill: currentColor; fill-rule: nonzero; opacity: 1;" vector-effect="non-scaling-stroke" transform=" translate(-11.9985, -12.0001)" d="M 20.1209 12.3317 C 20.5973 11.8553 20.8602 11.2258 20.8602 10.5594 C 20.8602 9.88792 20.5982 9.255 20.1209 8.77863 L 16.0178 4.67553 C 15.0827 3.71693 13.3857 3.7161 12.4572 4.66799 L 3.8835 13.2417 C 3.40127 13.7114 3.13672 14.346 3.13672 15.03 C 3.13672 15.7081 3.40127 16.3402 3.87596 16.8023 L 5.44404 18.3704 H 4.18322 C 3.72108 18.3704 3.34602 18.7455 3.34602 19.2076 C 3.34602 19.6697 3.72108 20.0448 4.18322 20.0448 H 19.2528 C 19.7149 20.0448 20.09 19.6697 20.09 19.2076 C 20.09 18.7455 19.7149 18.3704 19.2528 18.3704 H 14.0822 L 20.1209 12.3317 Z M 13.6486 5.84425 C 13.8428 5.645 14.0722 5.60314 14.2296 5.60314 C 14.3912 5.60314 14.6247 5.645 14.8265 5.85179 L 18.9372 9.96243 C 19.0971 10.1223 19.1858 10.335 19.1858 10.5594 C 19.1858 10.7787 19.0979 10.988 18.9372 11.1479 L 16.4247 13.6603 L 11.1286 8.36422 L 13.6486 5.84425 Z" stroke-linecap="round"/>
</g>
</svg>
