<svg width="24" height="24" viewBox="0 0 24 24" fill="none" xmlns="http://www.w3.org/2000/svg">
<path d="M7.0625 13.5649H13.3906V7.18994C13.3906 6.67212 13.8103 6.25244 14.3281 6.25244C14.8459 6.25244 15.2656 6.67212 15.2656 7.18994V13.5649H17.3019C17.1978 13.2714 17.1406 12.9561 17.1406 12.6274C17.1406 11.0765 18.4022 9.81494 19.9531 9.81494C21.504 9.81494 22.7656 11.0765 22.7656 12.6274C22.7656 14.1783 21.504 15.4399 19.9531 15.4399H15.2656V20.1743H15.2645C15.2393 21.7034 13.9883 22.9399 12.4531 22.9399C11.9353 22.9399 11.5156 22.5203 11.5156 22.0024C11.5156 21.4846 11.9353 21.0649 12.4531 21.0649C12.97 21.0649 13.3906 20.6443 13.3906 20.1274C13.3906 19.6105 12.97 19.1899 12.4531 19.1899C11.9362 19.1899 11.5156 19.6105 11.5156 20.1274C11.5156 20.6453 11.0959 21.0649 10.5781 21.0649C10.0603 21.0649 9.64062 20.6453 9.64062 20.1274C9.64062 18.5765 10.9022 17.3149 12.4531 17.3149C12.7818 17.3149 13.0971 17.3721 13.3906 17.4763V15.4399H7.0625C6.54468 15.4399 6.125 15.0203 6.125 14.5024C6.125 13.9846 6.54468 13.5649 7.0625 13.5649ZM20.8906 12.6274C20.8906 12.1105 20.47 11.6899 19.9531 11.6899C19.4362 11.6899 19.0156 12.1105 19.0156 12.6274C19.0156 13.1443 19.4362 13.5649 19.9531 13.5649C20.47 13.5649 20.8906 13.1443 20.8906 12.6274Z" fill="currentColor"/>
<path fill-rule="evenodd" clip-rule="evenodd" d="M7.75232 1.10459C8.01438 1.0753 8.28035 1.0603 8.54944 1.0603C8.81853 1.0603 9.08451 1.0753 9.34656 1.10459C9.75821 1.1506 10.0546 1.52161 10.0086 1.93326C9.9626 2.34491 9.5916 2.64132 9.17995 2.59531C8.97309 2.57219 8.76274 2.5603 8.54944 2.5603C8.33614 2.5603 8.12579 2.57219 7.91894 2.59531C7.50729 2.64132 7.13628 2.34491 7.09027 1.93326C7.04426 1.52161 7.34067 1.1506 7.75232 1.10459ZM4.96064 2.86202C5.22853 3.17795 5.18958 3.65122 4.87365 3.91911C4.552 4.19185 4.25865 4.49987 3.99926 4.8377C3.74699 5.16623 3.27616 5.22806 2.94762 4.9758C2.61909 4.72353 2.55726 4.2527 2.80952 3.92417C3.13331 3.50248 3.50017 3.11706 3.90356 2.77503C4.21948 2.50714 4.69276 2.54609 4.96064 2.86202ZM12.1382 2.86202C12.4061 2.54609 12.8794 2.50714 13.1953 2.77503C13.5987 3.11706 13.9656 3.50248 14.2894 3.92417C14.5416 4.2527 14.4798 4.72353 14.1513 4.9758C13.8227 5.22806 13.3519 5.16623 13.0996 4.8377C12.8402 4.49987 12.5469 4.19185 12.2252 3.91911C11.9093 3.65122 11.8704 3.17795 12.1382 2.86202ZM2.09576 7.13638C2.50787 7.17806 2.80816 7.54594 2.76647 7.95805C2.74527 8.16765 2.73438 8.38067 2.73438 8.59657C2.73438 8.81247 2.74527 9.02548 2.76647 9.23508C2.80816 9.6472 2.50787 10.0151 2.09576 10.0568C1.68365 10.0984 1.31577 9.79815 1.27409 9.38604C1.24782 9.12635 1.23438 8.86295 1.23438 8.59657C1.23438 8.33018 1.24782 8.06678 1.27409 7.80709C1.31577 7.39498 1.68365 7.09469 2.09576 7.13638ZM2.94762 12.2173C3.27616 11.9651 3.74699 12.0269 3.99926 12.3554C4.25865 12.6933 4.552 13.0013 4.87365 13.274C5.18958 13.5419 5.22853 14.0152 4.96064 14.3311C4.69276 14.647 4.21948 14.686 3.90355 14.4181C3.50017 14.0761 3.13331 13.6906 2.80952 13.269C2.55726 12.9404 2.61909 12.4696 2.94762 12.2173Z" fill="currentColor"/>
</svg>
