<svg width="24" height="24" viewBox="0 0 24 24" fill="none" xmlns="http://www.w3.org/2000/svg">
<g clip-path="url(#clip0)">
<path d="M8.75977 14.2969H14.2969V8.71875C14.2969 8.26566 14.6641 7.89844 15.1172 7.89844C15.5703 7.89844 15.9375 8.26566 15.9375 8.71875V14.2969H17.7193C17.6281 14.04 17.5781 13.7642 17.5781 13.4766C17.5781 12.1195 18.682 11.0156 20.0391 11.0156C21.3961 11.0156 22.5 12.1195 22.5 13.4766C22.5 14.8336 21.3961 15.9375 20.0391 15.9375H15.9375V20.0801H15.9365C15.9144 21.4181 14.8198 22.5 13.4766 22.5C13.0235 22.5 12.6562 22.1328 12.6562 21.6797C12.6562 21.2266 13.0235 20.8594 13.4766 20.8594C13.9289 20.8594 14.2969 20.4914 14.2969 20.0391C14.2969 19.5868 13.9289 19.2188 13.4766 19.2188C13.0243 19.2188 12.6562 19.5868 12.6562 20.0391C12.6562 20.4922 12.289 20.8594 11.8359 20.8594C11.3828 20.8594 11.0156 20.4922 11.0156 20.0391C11.0156 18.682 12.1195 17.5781 13.4766 17.5781C13.7642 17.5781 14.04 17.6281 14.2969 17.7193V15.9375H8.75977C8.30667 15.9375 7.93945 15.5703 7.93945 15.1172C7.93945 14.6641 8.30667 14.2969 8.75977 14.2969ZM20.8594 13.4766C20.8594 13.0243 20.4914 12.6562 20.0391 12.6562C19.5868 12.6562 19.2188 13.0243 19.2188 13.4766C19.2188 13.9289 19.5868 14.2969 20.0391 14.2969C20.4914 14.2969 20.8594 13.9289 20.8594 13.4766ZM1.5 11.918C1.5 12.3711 1.86722 12.7383 2.32031 12.7383C2.77341 12.7383 3.14062 12.3711 3.14062 11.918C3.14062 11.4649 2.77341 11.0977 2.32031 11.0977C1.86722 11.0977 1.5 11.4649 1.5 11.918ZM1.5 15.0762C1.5 15.5293 1.86722 15.8965 2.32031 15.8965C2.77341 15.8965 3.14062 15.5293 3.14062 15.0762C3.14062 14.6231 2.77341 14.2559 2.32031 14.2559C1.86722 14.2559 1.5 14.6231 1.5 15.0762ZM4.74023 15.0762C4.74023 15.5293 5.10745 15.8965 5.56055 15.8965C6.01364 15.8965 6.38086 15.5293 6.38086 15.0762C6.38086 14.6231 6.01364 14.2559 5.56055 14.2559C5.10745 14.2559 4.74023 14.6231 4.74023 15.0762ZM12.7793 2.32031C12.7793 1.86722 12.4121 1.5 11.959 1.5C11.5059 1.5 11.1387 1.86722 11.1387 2.32031C11.1387 2.77341 11.5059 3.14062 11.959 3.14062C12.4121 3.14062 12.7793 2.77341 12.7793 2.32031ZM4.74023 2.32031C4.74023 2.77341 5.10745 3.14062 5.56055 3.14062C6.01364 3.14062 6.38086 2.77341 6.38086 2.32031C6.38086 1.86722 6.01364 1.5 5.56055 1.5C5.10745 1.5 4.74023 1.86722 4.74023 2.32031ZM1.5 2.32031C1.5 2.77341 1.86722 3.14062 2.32031 3.14062C2.77341 3.14062 3.14062 2.77341 3.14062 2.32031C3.14062 1.86722 2.77341 1.5 2.32031 1.5C1.86722 1.5 1.5 1.86722 1.5 2.32031ZM7.93945 2.32031C7.93945 2.77341 8.30667 3.14062 8.75977 3.14062C9.21286 3.14062 9.58008 2.77341 9.58008 2.32031C9.58008 1.86722 9.21286 1.5 8.75977 1.5C8.30667 1.5 7.93945 1.86722 7.93945 2.32031ZM15.9375 2.32031C15.9375 1.86722 15.5703 1.5 15.1172 1.5C14.6641 1.5 14.2969 1.86722 14.2969 2.32031C14.2969 2.77341 14.6641 3.14062 15.1172 3.14062C15.5703 3.14062 15.9375 2.77341 15.9375 2.32031ZM1.5 8.71875C1.5 9.17184 1.86722 9.53906 2.32031 9.53906C2.77341 9.53906 3.14062 9.17184 3.14062 8.71875C3.14062 8.26566 2.77341 7.89844 2.32031 7.89844C1.86722 7.89844 1.5 8.26566 1.5 8.71875ZM1.5 5.60156C1.5 6.05466 1.86722 6.42188 2.32031 6.42188C2.77341 6.42188 3.14062 6.05466 3.14062 5.60156C3.14062 5.14847 2.77341 4.78125 2.32031 4.78125C1.86722 4.78125 1.5 5.14847 1.5 5.60156ZM15.9375 5.60156C15.9375 5.14847 15.5703 4.78125 15.1172 4.78125C14.6641 4.78125 14.2969 5.14847 14.2969 5.60156C14.2969 6.05466 14.6641 6.42188 15.1172 6.42188C15.5703 6.42188 15.9375 6.05466 15.9375 5.60156Z" fill="currentColor"/>
</g>
<defs>
<clipPath id="clip0">
<rect width="21" height="21" fill="currentColor" transform="matrix(-1 0 0 1 22.5 1.5)"/>
</clipPath>
</defs>
</svg>
