<svg width="24" height="24" viewBox="0 0 24 24" fill="none" xmlns="http://www.w3.org/2000/svg">
<path fill-rule="evenodd" clip-rule="evenodd" d="M21 16.041V7.95901C21 7.24401 20.619 6.58401 20 6.22701L13 2.18601C12.6959 2.01057 12.3511 1.91821 12 1.91821C11.6489 1.91821 11.3041 2.01057 11 2.18601L4 6.22601C3.381 6.58401 3 7.24401 3 7.95901V16.042C3 16.757 3.381 17.417 4 17.774L11 21.815C11.3041 21.9904 11.6489 22.0828 12 22.0828C12.3511 22.0828 12.6959 21.9904 13 21.815L20 17.774C20.619 17.416 21 16.756 21 16.041Z" stroke="currentColor" stroke-width="1.5" stroke-linecap="round" stroke-linejoin="round"/>
<path d="M12 22.08V12" stroke="currentColor" stroke-width="1.5" stroke-linecap="round" stroke-linejoin="round"/>
<path d="M12 12L20.73 6.95996" stroke="currentColor" stroke-width="1.5" stroke-linecap="round" stroke-linejoin="round"/>
<path d="M3.26953 6.95996L11.9995 12" stroke="currentColor" stroke-width="1.5" stroke-linecap="round" stroke-linejoin="round"/>
<path d="M6.05646 11.29L6.05669 16.622L7.20965 17.1985L7.20958 15.5501L8.05857 15.9746C9.15912 16.5249 9.74255 16.0081 9.74251 14.9846C9.74247 13.9768 9.16944 12.8466 8.07239 12.298L6.05646 11.29ZM7.20597 12.8569L7.80341 13.1557C8.27507 13.3915 8.57206 13.8447 8.57208 14.3994C8.57211 15.0244 8.22623 15.0858 7.67072 14.808L7.20604 14.5757L7.20597 12.8569Z" fill="currentColor"/>
<path d="M16.4001 12.0608L14.3807 13.0706L14.3805 18.4027L15.516 17.8349L15.516 15.9325L16.1694 15.6058L16.9764 17.1046L18.2551 16.4652L17.3049 14.8584C17.6298 14.5475 18.1574 13.8071 18.1574 12.9282C18.1575 11.9243 17.5775 11.4721 16.4001 12.0608ZM15.5161 15.0185L15.5162 13.4716L16.2289 13.1152C16.6412 12.9091 16.9661 13.0083 16.9661 13.5356C16.966 14.0395 16.6655 14.4437 16.2183 14.6673L15.5161 15.0185Z" fill="currentColor"/>
<path d="M10.752 9.12231V6.23413H10.8032L11.791 8.41821H12.4541L13.4385 6.23413H13.4863V9.12231H14.5015V4.45679H13.3462L12.1465 7.09204H12.1123L10.916 4.45679H9.74707V9.12231H10.752Z" fill="currentColor"/>
</svg>
