<svg width="24" height="24" viewBox="0 0 24 24" fill="none" xmlns="http://www.w3.org/2000/svg">
<path fill-rule="evenodd" clip-rule="evenodd" d="M21 16.041V7.95901C21 7.24401 20.619 6.58401 20 6.22701L13 2.18601C12.6959 2.01057 12.3511 1.91821 12 1.91821C11.6489 1.91821 11.3041 2.01057 11 2.18601L4 6.22601C3.381 6.58401 3 7.24401 3 7.95901V16.042C3 16.757 3.381 17.417 4 17.774L11 21.815C11.3041 21.9904 11.6489 22.0828 12 22.0828C12.3511 22.0828 12.6959 21.9904 13 21.815L20 17.774C20.619 17.416 21 16.756 21 16.041Z" stroke="currentColor" stroke-width="1.5" stroke-linecap="round" stroke-linejoin="round"/>
<path d="M12 22.08V12" stroke="currentColor" stroke-width="1.5" stroke-linecap="round" stroke-linejoin="round"/>
<path d="M12 12L20.73 6.95996" stroke="currentColor" stroke-width="1.5" stroke-linecap="round" stroke-linejoin="round"/>
<path d="M3.26953 6.95996L11.9995 12" stroke="currentColor" stroke-width="1.5" stroke-linecap="round" stroke-linejoin="round"/>
<path d="M7.09076 14.8735L7.61833 15.1373C8.10746 15.3819 8.373 15.8193 8.37302 16.1982C8.37653 16.5984 8.09354 16.7577 7.63236 16.5271C7.18515 16.3035 6.88118 15.8702 6.85671 15.4752L5.80158 14.9476C5.8121 15.8239 6.38162 16.8821 7.60445 17.4936C8.62814 18.0055 9.52952 17.8507 9.52249 16.855C9.51546 16.0078 8.98089 15.3382 8.51971 15.0724L8.5197 15.0177C8.87956 15.143 9.38615 15.0174 9.37913 14.2561C9.37211 13.4245 8.63139 12.4838 7.64963 11.9929C6.53511 11.4356 5.89926 11.7895 5.86786 12.723L6.94046 13.2593C6.95093 12.9442 7.1815 12.7197 7.60426 12.9311C7.98857 13.1233 8.25412 13.5178 8.25762 13.8632C8.25764 14.2343 7.99562 14.3728 7.59383 14.1719L7.09072 13.9204L7.09076 14.8735Z" fill="currentColor"/>
<path d="M14.3807 13.0706L14.3805 18.4027L16.2532 17.4663C17.7275 16.729 18.4089 15.361 18.409 13.7008C18.409 12.0563 17.7452 11.3882 16.2534 12.1342L14.3807 13.0706ZM15.5371 13.5158L16.0717 13.2485C16.9661 12.8013 17.2246 13.3868 17.2246 14.3243C17.2245 15.6407 16.7388 16.2 16.0715 16.5337L15.537 16.801L15.5371 13.5158Z" fill="currentColor"/>
</svg>
