<svg width="24" height="24" viewBox="0 0 24 24" fill="none" xmlns="http://www.w3.org/2000/svg">
<path d="M20.1209 12.3317C20.5973 11.8553 20.8602 11.2258 20.8602 10.5594C20.8602 9.88792 20.5982 9.255 20.1209 8.77863L16.0178 4.67553C15.0827 3.71693 13.3857 3.7161 12.4572 4.66799L3.8835 13.2417C3.40127 13.7114 3.13672 14.346 3.13672 15.03C3.13672 15.7081 3.40127 16.3402 3.87596 16.8023L5.44404 18.3704H4.18322C3.72108 18.3704 3.34602 18.7455 3.34602 19.2076C3.34602 19.6697 3.72108 20.0448 4.18322 20.0448H19.2528C19.7149 20.0448 20.09 19.6697 20.09 19.2076C20.09 18.7455 19.7149 18.3704 19.2528 18.3704H14.0822L20.1209 12.3317ZM13.6486 5.84425C13.8428 5.645 14.0722 5.60314 14.2296 5.60314C14.3912 5.60314 14.6247 5.645 14.8265 5.85179L18.9372 9.96243C19.0971 10.1223 19.1858 10.335 19.1858 10.5594C19.1858 10.7787 19.0979 10.988 18.9372 11.1479L16.4247 13.6603L11.1286 8.36422L13.6486 5.84425Z" fill="currentColor"/>
</svg>
