<svg viewBox="0 0 14 14"   width="1em"
  height="1em"
  fill="currentColor" xmlns="http://www.w3.org/2000/svg">
<path d="M12.2474 6.4165C12.0927 6.4165 11.9443 6.47796 11.8349 6.58736C11.7255 6.69675 11.6641 6.84513 11.6641 6.99984V11.6665H2.33073V2.33317H6.9974C7.15211 2.33317 7.30048 2.27171 7.40987 2.16232C7.51927 2.05292 7.58073 1.90455 7.58073 1.74984C7.58073 1.59513 7.51927 1.44675 7.40987 1.33736C7.30048 1.22796 7.15211 1.1665 6.9974 1.1665H1.7474C1.59269 1.1665 1.44431 1.22796 1.33492 1.33736C1.22552 1.44675 1.16406 1.59513 1.16406 1.74984V12.2498C1.16406 12.4045 1.22552 12.5529 1.33492 12.6623C1.44431 12.7717 1.59269 12.8332 1.7474 12.8332H12.2474C12.4021 12.8332 12.5505 12.7717 12.6599 12.6623C12.7693 12.5529 12.8307 12.4045 12.8307 12.2498V6.99984C12.8307 6.84513 12.7693 6.69675 12.6599 6.58736C12.5505 6.47796 12.4021 6.4165 12.2474 6.4165Z" fill="#39C2D7"/>
<path d="M12.4723 1.21266C12.2781 1.13216 12.3912 1.18291 9.3334 1.16658C9.17869 1.16658 9.03032 1.22804 8.92092 1.33743C8.81153 1.44683 8.75007 1.5952 8.75007 1.74991C8.75007 1.90462 8.81153 2.053 8.92092 2.16239C9.03032 2.27179 9.17869 2.33325 9.3334 2.33325H10.8419L6.58824 6.58691C6.53253 6.64072 6.48809 6.70509 6.45752 6.77626C6.42694 6.84743 6.41085 6.92397 6.41018 7.00143C6.40951 7.07888 6.42426 7.1557 6.45359 7.22739C6.48293 7.29908 6.52624 7.36421 6.58101 7.41898C6.63578 7.47375 6.70091 7.51706 6.7726 7.54639C6.84429 7.57572 6.9211 7.59048 6.99856 7.58981C7.07601 7.58914 7.15256 7.57304 7.22373 7.54247C7.29489 7.5119 7.35926 7.46746 7.41307 7.41175L11.6667 3.15866V4.66658C11.6667 4.82129 11.7282 4.96966 11.8376 5.07906C11.947 5.18845 12.0954 5.24991 12.2501 5.24991C12.4048 5.24991 12.5531 5.18845 12.6625 5.07906C12.7719 4.96966 12.8334 4.82129 12.8334 4.66658C12.8182 1.59358 12.869 1.72075 12.7885 1.52766C12.729 1.3849 12.6153 1.2716 12.4723 1.21266Z" fill="#39C2D7"/>
</svg>
