<?xml version="1.0" encoding="UTF-8"?>
<svg xmlns="http://www.w3.org/2000/svg" xmlns:xlink="http://www.w3.org/1999/xlink" width="24px" height="24px" viewBox="0 0 24 24" version="1.1">
<g id="surface1">
<path style=" stroke:none;fill-rule:nonzero;fill:currentColor;fill-opacity:1;" d="M 7.863281 22.339844 L 7.066406 22.339844 C 6.621094 22.78125 6.132812 23.144531 5.597656 23.441406 L 7.863281 23.441406 C 8 23.441406 8.113281 23.332031 8.113281 23.191406 L 8.113281 22.589844 C 8.113281 22.453125 8 22.339844 7.863281 22.339844 Z M 7.863281 22.339844 "/>
<path style=" stroke:none;fill-rule:nonzero;fill:currentColor;fill-opacity:1;" d="M 12.539062 22.339844 L 9.496094 22.339844 C 9.359375 22.339844 9.246094 22.453125 9.246094 22.589844 L 9.246094 23.191406 C 9.246094 23.332031 9.359375 23.441406 9.496094 23.441406 L 12.539062 23.441406 C 12.675781 23.441406 12.785156 23.332031 12.785156 23.191406 L 12.785156 22.589844 C 12.785156 22.453125 12.675781 22.339844 12.539062 22.339844 Z M 12.539062 22.339844 "/>
<path style=" stroke:none;fill-rule:nonzero;fill:currentColor;fill-opacity:1;" d="M 17.210938 22.339844 L 14.171875 22.339844 C 14.03125 22.339844 13.921875 22.453125 13.921875 22.589844 L 13.921875 23.191406 C 13.921875 23.332031 14.03125 23.441406 14.171875 23.441406 L 17.210938 23.441406 C 17.347656 23.441406 17.460938 23.332031 17.460938 23.191406 L 17.460938 22.589844 C 17.460938 22.453125 17.347656 22.339844 17.210938 22.339844 Z M 17.210938 22.339844 "/>
<path style=" stroke:none;fill-rule:nonzero;fill:currentColor;fill-opacity:1;" d="M 21.882812 22.339844 L 18.84375 22.339844 C 18.707031 22.339844 18.59375 22.453125 18.59375 22.589844 L 18.59375 23.191406 C 18.59375 23.332031 18.707031 23.441406 18.84375 23.441406 L 21.882812 23.441406 C 22.019531 23.441406 22.132812 23.332031 22.132812 23.191406 L 22.132812 22.589844 C 22.132812 22.453125 22.019531 22.339844 21.882812 22.339844 Z M 21.882812 22.339844 "/>
<path style=" stroke:none;fill-rule:nonzero;fill:currentColor;fill-opacity:1;" d="M 7.878906 19.746094 C 9.527344 16.546875 10.039062 15.703125 10.699219 15.222656 L 9.234375 13.761719 L 0.0351562 22.957031 C -0.03125 23.027344 0 23.140625 0.0898438 23.164062 C 0.429688 23.261719 1.175781 23.441406 2.109375 23.441406 C 2.851562 23.441406 3.710938 23.328125 4.574219 22.972656 C 4.957031 22.8125 5.339844 22.609375 5.714844 22.34375 C 6.507812 21.777344 7.257812 20.949219 7.878906 19.746094 Z M 7.878906 19.746094 "/>
<path style=" stroke:none;fill-rule:nonzero;fill:currentColor;fill-opacity:1;" d="M 22.464844 0.9375 C 22.203125 0.675781 21.859375 0.546875 21.519531 0.546875 C 21.179688 0.546875 20.835938 0.675781 20.578125 0.9375 L 9.40625 12.109375 C 9.246094 12.269531 9.246094 12.527344 9.40625 12.6875 L 10.085938 13.371094 L 11.230469 12.230469 L 14.492188 8.96875 L 17.132812 6.324219 C 17.152344 6.308594 17.164062 6.292969 17.183594 6.28125 C 17.1875 6.277344 17.191406 6.277344 17.191406 6.273438 C 17.199219 6.265625 17.210938 6.261719 17.21875 6.253906 C 17.492188 6.058594 17.867188 6.085938 18.113281 6.324219 L 18.210938 6.421875 C 18.425781 6.636719 18.46875 6.960938 18.34375 7.21875 C 18.308594 7.285156 18.265625 7.347656 18.210938 7.402344 L 14.6875 10.921875 L 11.164062 14.445312 L 11.847656 15.128906 C 11.925781 15.207031 12.03125 15.246094 12.136719 15.246094 C 12.242188 15.246094 12.34375 15.207031 12.425781 15.128906 L 23.597656 3.957031 C 24.117188 3.433594 24.117188 2.589844 23.597656 2.070312 Z M 22.464844 0.9375 "/>
</g>
</svg>
