<svg width="24" height="24" viewBox="0 0 24 24" fill="none" xmlns="http://www.w3.org/2000/svg">
<path d="M17.331 8.23707L11.9999 2.90601L6.66885 8.23707C3.73017 11.1757 3.73017 15.9511 6.66885 18.8898C7.36853 19.5901 8.19966 20.1454 9.11452 20.5236C10.0294 20.9018 11.01 21.0956 11.9999 21.0938C13.9308 21.0938 15.8616 20.3591 17.331 18.8898C20.2697 15.9511 20.2697 11.1757 17.331 8.23707ZM11.9999 19.2194C10.4929 19.2194 9.07066 18.6355 8.00633 17.5617C7.47909 17.0392 7.06102 16.417 6.77644 15.7314C6.49185 15.0458 6.34642 14.3105 6.34861 13.5681C6.34861 12.0611 6.93258 10.6389 8.00633 9.57455L11.9999 5.57154V19.2194Z" fill="currentColor"/>
</svg>
