<svg width="24" height="24" viewBox="0 0 24 24" fill="none" xmlns="http://www.w3.org/2000/svg">
<path d="M15.6427 6.83386L6.83419 15.6424C6.29589 16.1807 6.32307 17.0887 6.89458 17.6602L11.051 21.8166C11.6225 22.3882 12.5306 22.4153 13.0689 21.877L21.8774 13.0685C22.4157 12.5302 22.3885 11.6222 21.817 11.0507L17.6605 6.89425C17.089 6.32274 16.181 6.29557 15.6427 6.83386ZM20.8383 12.0294L12.0297 20.8379L7.8733 16.6815L8.85203 15.7028L11.4229 18.2736L12.4016 17.2949L9.83075 14.724L10.8095 13.7453L12.4016 15.3375L13.3804 14.3587L11.7882 12.7666L12.7669 11.7879L15.3378 14.3587L16.3165 13.38L13.7456 10.8091L14.7244 9.83042L16.4134 11.5194L17.3921 10.5407L15.7031 8.8517L16.6818 7.87297L20.8383 12.0294Z" fill="currentColor"/>
<path d="M13.5403 7.17153L12.002 5.63328L5.70257 11.9327L7.24083 13.471L3.19554 13.4143L3.13882 9.36899L4.67707 10.9072L10.9765 4.60777L9.43829 3.06952L13.4146 3.19523L13.5403 7.17153Z" fill="currentColor"/>
</svg>
