<svg width="16" height="16" viewBox="0 0 16 16" fill="none" xmlns="http://www.w3.org/2000/svg">
<g clip-path="url(#clip0_2482_22378)">
<path d="M9.5935 7.33341L10.6668 8.40674V7.33341H9.5935ZM11.3335 4.66674H8.66683V5.9334H11.3335C12.4735 5.9334 13.4002 6.86007 13.4002 8.00007C13.4002 8.84674 12.8868 9.58007 12.1535 9.8934L13.0868 10.8267C14.0335 10.2401 14.6668 9.1934 14.6668 8.00007C14.6668 6.16007 13.1735 4.66674 11.3335 4.66674ZM1.3335 2.84674L3.40683 4.92007C2.1935 5.4134 1.3335 6.60674 1.3335 8.00007C1.3335 9.84007 2.82683 11.3334 4.66683 11.3334H7.3335V10.0667H4.66683C3.52683 10.0667 2.60016 9.14007 2.60016 8.00007C2.60016 6.94007 3.40683 6.06674 4.44016 5.9534L5.82016 7.33341H5.3335V8.66674H7.1535L8.66683 10.1801V11.3334H9.82016L12.4935 14.0067L13.4335 13.0667L2.2735 1.90674L1.3335 2.84674Z" fill="currentColor"/>
</g>
<defs>
<clipPath id="clip0_2482_22378">
<rect width="16" height="16" fill="currentColor"/>
</clipPath>
</defs>
</svg>
