<svg width="24" height="24" viewBox="0 0 24 24" fill="none" xmlns="http://www.w3.org/2000/svg">
<path d="M6.27161 17.7277C5.06246 16.5185 5.06246 14.5528 6.27161 13.3436L9.10004 10.5152L7.75654 9.17168L4.92811 12.0001C2.9765 13.9517 2.9765 17.1196 4.92811 19.0712C6.87973 21.0228 10.0476 21.0228 11.9992 19.0712L14.8276 16.2428L13.4841 14.8992L10.6557 17.7277C9.44652 18.9368 7.48077 18.9368 6.27161 17.7277ZM9.87786 15.5356L15.5347 9.87879L14.1205 8.46458L8.46365 14.1214L9.87786 15.5356ZM11.9992 4.92904L9.17075 7.75747L10.5143 9.10097L13.3427 6.27255C14.5518 5.06339 16.5176 5.06339 17.7267 6.27255C18.9359 7.4817 18.9359 9.44746 17.7267 10.6566L14.8983 13.485L16.2418 14.8285L19.0702 12.0001C21.0219 10.0485 21.0219 6.88066 19.0702 4.92904C17.1186 2.97743 13.9508 2.97743 11.9992 4.92904Z" fill="currentColor"/>
</svg>
