<svg width="24" height="24" viewBox="0 0 24 24" fill="none" xmlns="http://www.w3.org/2000/svg">
<g clip-path="url(#clip0_473_23857)">
<path d="M16.9955 12.8629V18.9022H4.91692V6.82358H9.24796C9.29109 6.21103 9.43776 5.63298 9.66208 5.09807H4.91692C3.96789 5.09807 3.19141 5.87455 3.19141 6.82358V18.9022C3.19141 19.8512 3.96789 20.6277 4.91692 20.6277H16.9955C17.9445 20.6277 18.721 19.8512 18.721 18.9022V14.5884L16.9955 12.8629ZM18.1171 9.31695C18.4967 8.71302 18.721 8.01419 18.721 7.25496C18.721 5.1067 16.9869 3.37256 14.8386 3.37256C12.6904 3.37256 10.9562 5.1067 10.9562 7.25496C10.9562 9.40322 12.6904 11.1374 14.83 11.1374C15.5892 11.1374 16.2967 10.913 16.892 10.5334L19.5838 13.2252L20.8089 12.0001L18.1171 9.31695ZM14.8386 9.41185C13.648 9.41185 12.6817 8.44556 12.6817 7.25496C12.6817 6.06436 13.648 5.09807 14.8386 5.09807C16.0292 5.09807 16.9955 6.06436 16.9955 7.25496C16.9955 8.44556 16.0292 9.41185 14.8386 9.41185Z" fill="currentColor"/>
</g>
<defs>
<clipPath id="clip0_473_23857">
<rect width="24" height="24" fill="currentColor"/>
</clipPath>
</defs>
</svg>
