<svg width="24" height="24" viewBox="0 0 24 24" fill="none" xmlns="http://www.w3.org/2000/svg">
<path d="M16.9142 20.6667H11.8611C11.028 20.6667 10.2102 20.3165 9.63163 19.7096L4 13.7882L5.59691 12.3643C6.07522 11.9364 6.77724 11.8508 7.3404 12.1542L9.19961 13.1502V5.71933C9.19932 5.43003 9.263 5.14432 9.38602 4.88298C9.50904 4.62165 9.68831 4.39128 9.91076 4.20866C10.1332 4.02604 10.3932 3.89576 10.6719 3.82731C10.9506 3.75886 11.2409 3.75396 11.5217 3.81298C11.5911 2.80145 12.4243 2 13.4426 2C14.1061 2 14.6847 2.33458 15.0318 2.84813C15.2555 2.75476 15.5024 2.70807 15.757 2.70807C16.2685 2.70807 16.7591 2.91302 17.1207 3.27782C17.4824 3.64263 17.6856 4.13741 17.6856 4.65333V4.8712C17.9659 4.8135 18.2553 4.81939 18.533 4.88845C18.8108 4.95751 19.0698 5.08801 19.2913 5.27049C19.5128 5.45297 19.6913 5.68286 19.8139 5.94351C19.9365 6.20417 20.0001 6.48906 20 6.77755V17.5543C20 19.2739 18.6191 20.6667 16.9142 20.6667ZM6.22179 13.8816L10.7425 18.628C11.0357 18.9315 11.4368 19.1105 11.8534 19.1105H16.9142C17.7628 19.1105 18.4571 18.4102 18.4571 17.5543V6.77755C18.4571 6.55968 18.2874 6.38849 18.0714 6.38849C17.8554 6.38849 17.6856 6.55968 17.6856 6.77755V11.3294H16.1427V4.65333C16.1427 4.43546 15.973 4.26428 15.757 4.26428C15.541 4.26428 15.3713 4.43546 15.3713 4.65333V11.3294H13.8284V3.94525C13.8284 3.72739 13.6586 3.5562 13.4426 3.5562C13.2266 3.5562 13.0569 3.72739 13.0569 3.94525V11.3294H11.514V5.71933C11.514 5.50146 11.3443 5.33028 11.1283 5.33028C10.9122 5.33028 10.7425 5.50924 10.7425 5.71933V15.7335L6.61524 13.5315L6.22179 13.8816Z" fill="currentColor"/>
</svg>
