<?xml version="1.0" standalone="no"?>
<!DOCTYPE svg PUBLIC "-//W3C//DTD SVG 20010904//EN"
 "http://www.w3.org/TR/2001/REC-SVG-20010904/DTD/svg10.dtd">
<svg version="1.0" xmlns="http://www.w3.org/2000/svg"
 width="512.000000pt" height="512.000000pt" viewBox="0 0 512.000000 512.000000"
 preserveAspectRatio="xMidYMid meet">

<g transform="translate(0.000000,512.000000) scale(0.100000,-0.100000)"
fill="currentColor" stroke="none">
<path d="M1542 5109 c-113 -22 -213 -103 -269 -217 l-38 -76 -3 -732 -3 -733
-427 -3 c-410 -3 -429 -4 -473 -24 -68 -32 -119 -82 -151 -149 l-28 -60 0
-796 c0 -894 -4 -850 75 -937 23 -26 64 -58 91 -72 l49 -25 433 -3 432 -3 0
-453 c0 -261 4 -476 10 -506 15 -77 48 -138 110 -200 62 -62 123 -95 200 -110
34 -6 596 -10 1559 -10 1639 0 1569 -2 1666 55 64 37 125 105 159 175 l31 65
3 1702 2 1701 -27 34 c-31 37 -1277 1332 -1313 1363 -22 20 -37 20 -1034 21
-556 1 -1030 -2 -1054 -7z m1858 -844 l0 -655 29 -32 29 -33 661 -3 661 -3 -2
-1598 -3 -1598 -30 -48 c-20 -32 -45 -56 -74 -72 l-45 -23 -1535 2 -1536 3
-33 23 c-17 13 -44 40 -60 59 l-27 36 -3 479 -3 478 854 0 c936 0 910 -2 994
60 58 43 99 112 113 190 8 45 10 299 8 825 l-3 760 -26 55 c-33 70 -79 116
-149 149 l-55 26 -867 3 -868 3 0 710 c0 777 -2 744 58 802 63 60 3 57 1000
57 l912 0 0 -655z m676 88 c264 -274 503 -524 533 -555 l54 -58 -537 0 -536 0
0 555 c0 305 2 555 4 555 2 0 219 -224 482 -497z m-927 -1217 c15 -8 32 -26
39 -41 9 -19 12 -217 12 -781 0 -810 1 -797 -49 -824 -13 -7 -466 -10 -1380
-10 l-1361 0 -32 29 -33 29 -3 734 c-2 403 0 753 3 777 5 30 16 54 35 73 l28
28 1357 0 c1154 0 1360 -2 1384 -14z"/>
<path d="M730 2297 l0 -427 85 0 85 0 0 159 0 158 138 5 c120 4 144 7 192 30
60 27 109 79 128 137 16 44 15 143 0 195 -17 55 -91 131 -143 145 -22 7 -140
15 -262 18 l-223 6 0 -426z m428 240 c37 -36 48 -84 28 -131 -21 -50 -57 -64
-180 -72 l-106 -7 0 122 0 123 114 -4 c110 -3 116 -4 144 -31z"/>
<path d="M1518 2715 c-5 -5 -8 -197 -8 -428 l0 -419 223 4 c189 4 229 7 271
24 101 40 178 138 206 265 16 71 8 246 -14 316 -33 104 -121 196 -214 223 -44
13 -454 26 -464 15z m422 -167 c59 -30 88 -83 99 -182 11 -92 -2 -215 -26
-264 -27 -55 -71 -79 -156 -87 -39 -4 -94 -5 -122 -3 l-50 3 -3 278 -2 277
108 0 c92 0 114 -3 152 -22z"/>
<path d="M2370 2295 l0 -425 85 0 85 0 0 180 0 180 175 0 175 0 0 70 0 70
-175 0 -175 0 0 100 0 100 205 0 205 0 0 75 0 75 -290 0 -290 0 0 -425z"/>
</g>
</svg>
