<svg width="24" height="24" viewBox="0 0 24 24" fill="none" xmlns="http://www.w3.org/2000/svg">
<path d="M6.51939 11.1842L15.2448 2.45884C15.3402 2.3633 15.4534 2.28751 15.5781 2.2358C15.7028 2.18409 15.8365 2.15747 15.9715 2.15747C16.1065 2.15747 16.2401 2.18409 16.3648 2.2358C16.4895 2.28751 16.6028 2.3633 16.6982 2.45884L17.8062 3.56686C17.9017 3.66223 17.9775 3.7755 18.0292 3.90019C18.0809 4.02489 18.1075 4.15855 18.1075 4.29354C18.1075 4.42853 18.0809 4.5622 18.0292 4.68689C17.9775 4.81159 17.9017 4.92486 17.8062 5.02023L9.07873 13.7477C8.8087 14.0176 8.46879 14.207 8.09714 14.2945L6.40325 14.6943C6.28911 14.7212 6.16999 14.7185 6.05718 14.6865C5.94438 14.6545 5.84162 14.5942 5.75865 14.5113C5.67567 14.4284 5.61524 14.3257 5.58307 14.213C5.55089 14.1002 5.54805 13.9811 5.5748 13.8669L5.97155 12.1699C6.05892 11.7968 6.24907 11.4556 6.51939 11.1842V11.1842Z" stroke="currentColor" stroke-width="1.5" stroke-linecap="round" stroke-linejoin="round"/>
<path d="M14.5721 5.6748L7.8125 12.4346" stroke="currentColor" stroke-width="0.5"/>
<path d="M6.67969 10.6116L9.42195 13.3543" stroke="currentColor" stroke-width="1.5"/>
<path d="M13.6133 4.08447L16.1829 6.65409" stroke="currentColor" stroke-width="1.5" stroke-linecap="round" stroke-linejoin="round"/>
<path d="M19.4513 15.4058C18.7999 14.5125 17.8203 13.9145 16.7281 13.7435C15.9314 13.6186 15.1156 13.7276 14.3796 14.0571C13.6436 14.3867 13.0191 14.9227 12.5816 15.6001L10.5601 18.7293C10.1711 19.3309 9.58744 19.7807 8.90663 20.0034C8.22582 20.2261 7.48916 20.2084 6.81989 19.953C6.15062 19.6977 5.58931 19.2203 5.22987 18.6007C4.87042 17.9811 4.73463 17.2568 4.84521 16.5491L4.8935 16.2408" stroke="currentColor" stroke-width="1.5" stroke-linecap="round" stroke-linejoin="round"/>
</svg>
