<svg width="24" height="24" viewBox="0 0 24 24" fill="none" xmlns="http://www.w3.org/2000/svg">
<path d="M20.71 5.63L18.37 3.29C18.2775 3.1973 18.1676 3.12375 18.0466 3.07357C17.9257 3.02339 17.796 2.99756 17.665 2.99756C17.534 2.99756 17.4043 3.02339 17.2834 3.07357C17.1624 3.12375 17.0525 3.1973 16.96 3.29L13.84 6.41L11.91 4.5L10.5 5.91L11.92 7.33L3 16.25V21H7.75L16.67 12.08L18.09 13.5L19.5 12.09L17.58 10.17L20.7 7.05C21.1 6.65 21.1 6.02 20.71 5.63ZM6.92 19L5 17.08L13.06 9.02L14.98 10.94L6.92 19Z" fill="currentColor"/>
</svg>
