<svg xmlns="http://www.w3.org/2000/svg" xmlns:xlink="http://www.w3.org/1999/xlink" version="1.1" width="1000" height="1000" viewBox="0 0 1000 1000" xml:space="preserve">
<desc>Created with Fabric.js 3.5.0</desc>
<defs>
</defs>
<rect x="0" y="0" width="100%" height="100%" fill="rgba(255,255,255,0)"/>
<g transform="matrix(32.4554 0 0 32.4554 578.8214 385.5258)" id="801080">
<path style="stroke: none; stroke-width: 1; stroke-dasharray: none; stroke-linecap: butt; stroke-dashoffset: 0; stroke-linejoin: miter; stroke-miterlimit: 4; is-custom-font: none; font-file-url: none; fill: currentColor; fill-rule: nonzero; opacity: 1;" vector-effect="non-scaling-stroke" transform=" translate(-11.5013, -12)" d="M 7 16 C 7.55 16 8 16.45 8 17 C 8 18.1 7.1 19 6 19 C 5.83 19 5.67 18.98 5.5 18.95 C 5.81 18.4 6 17.74 6 17 C 6 16.45 6.45 16 7 16 Z M 18.67 3 C 18.41 3 18.16 3.1 17.96 3.29 L 9 12.25 L 11.75 15 L 20.71 6.04 C 21.1 5.65 21.1 5.02 20.71 4.63 L 19.37 3.29 C 19.17 3.09 18.92 3 18.67 3 Z M 7 14 C 5.34 14 4 15.34 4 17 C 4 18.31 2.84 19 2 19 C 2.92 20.22 4.49 21 6 21 C 8.21 21 10 19.21 10 17 C 10 15.34 8.66 14 7 14 Z" stroke-linecap="round"/>
</g>
<g transform="matrix(3.5573 0 0 3.5573 403.8904 606.1122)" id="212882">
<path style="stroke: currentColor; stroke-width: 15; stroke-dasharray: none; stroke-linecap: butt; stroke-dashoffset: 0; stroke-linejoin: miter; stroke-miterlimit: 4; is-custom-font: none; font-file-url: none; fill: none; fill-rule: nonzero; opacity: 1;" vector-effect="non-scaling-stroke" transform=" translate(-79, -78.9999)" d="M 154.685 2.50049 H 154.711 L 154.738 2.49994 C 155.15 2.49126 155.491 2.81853 155.5 3.2304 L 155.5 3.23069 C 155.5 3.24095 155.5 3.25176 155.5 3.26283 L 155.499 3.28886 V 3.3149 V 154.686 C 155.499 155.135 155.135 155.5 154.685 155.5 H 3.31409 C 2.86449 155.5 2.5 155.135 2.5 154.686 V 3.3149 C 2.5 2.86483 2.86465 2.50049 3.31409 2.50049 H 154.685 Z" stroke-linecap="round"/>
</g>
</svg>
