<?xml version="1.0" encoding="UTF-8"?>
<svg xmlns="http://www.w3.org/2000/svg" xmlns:xlink="http://www.w3.org/1999/xlink" width="24px" height="24px" viewBox="0 0 24 24" version="1.1">
<g id="surface1">
<path style=" stroke:none;fill-rule:nonzero;fill:currentColor;fill-opacity:1;" d="M 7.878906 19.746094 C 9.527344 16.546875 10.039062 15.703125 10.699219 15.222656 L 9.234375 13.761719 L 0.0351562 22.957031 C -0.03125 23.027344 0 23.140625 0.0898438 23.164062 C 0.429688 23.261719 1.175781 23.441406 2.109375 23.441406 C 2.851562 23.441406 3.710938 23.328125 4.574219 22.972656 C 4.957031 22.8125 5.339844 22.609375 5.714844 22.34375 C 6.507812 21.777344 7.257812 20.949219 7.878906 19.746094 Z M 7.878906 19.746094 "/>
<path style=" stroke:none;fill-rule:nonzero;fill:currentColor;fill-opacity:1;" d="M 22.464844 0.9375 C 22.203125 0.675781 21.859375 0.546875 21.519531 0.546875 C 21.179688 0.546875 20.835938 0.675781 20.578125 0.9375 L 9.40625 12.109375 C 9.246094 12.269531 9.246094 12.527344 9.40625 12.6875 L 10.085938 13.371094 L 11.230469 12.230469 L 14.492188 8.96875 L 17.132812 6.324219 C 17.152344 6.308594 17.164062 6.292969 17.183594 6.28125 C 17.1875 6.277344 17.191406 6.277344 17.191406 6.273438 C 17.199219 6.265625 17.210938 6.261719 17.21875 6.253906 C 17.492188 6.058594 17.867188 6.085938 18.113281 6.324219 L 18.210938 6.421875 C 18.425781 6.636719 18.46875 6.960938 18.34375 7.21875 C 18.308594 7.285156 18.265625 7.347656 18.210938 7.402344 L 14.6875 10.921875 L 11.164062 14.445312 L 11.847656 15.128906 C 11.925781 15.207031 12.03125 15.246094 12.136719 15.246094 C 12.242188 15.246094 12.34375 15.207031 12.425781 15.128906 L 23.597656 3.957031 C 24.117188 3.433594 24.117188 2.589844 23.597656 2.070312 Z M 22.464844 0.9375 "/>
<path style=" stroke:none;fill-rule:nonzero;fill:currentColor;fill-opacity:1;" d="M 1.421875 12.675781 C 0.953125 12.800781 0.585938 13.207031 0.515625 13.6875 C 0.484375 13.902344 0.5 13.988281 0.59375 14.082031 C 0.6875 14.175781 0.78125 14.199219 0.90625 14.152344 C 1.039062 14.105469 1.097656 14.019531 1.121094 13.828125 C 1.144531 13.640625 1.1875 13.546875 1.300781 13.433594 C 1.433594 13.296875 1.550781 13.257812 1.820312 13.257812 C 2.109375 13.257812 2.21875 13.230469 2.304688 13.132812 C 2.417969 12.996094 2.371094 12.753906 2.21875 12.671875 C 2.121094 12.625 1.613281 12.625 1.421875 12.675781 Z M 1.421875 12.675781 "/>
<path style=" stroke:none;fill-rule:nonzero;fill:currentColor;fill-opacity:1;" d="M 3.707031 12.675781 C 3.554688 12.753906 3.515625 12.996094 3.628906 13.132812 C 3.664062 13.175781 3.734375 13.21875 3.78125 13.234375 C 3.90625 13.265625 5.613281 13.265625 5.738281 13.234375 C 5.871094 13.195312 5.957031 13.082031 5.957031 12.9375 C 5.957031 12.804688 5.910156 12.726562 5.808594 12.671875 C 5.699219 12.617188 3.8125 12.617188 3.707031 12.675781 Z M 3.707031 12.675781 "/>
<path style=" stroke:none;fill-rule:nonzero;fill:currentColor;fill-opacity:1;" d="M 7.300781 12.679688 C 7.085938 12.808594 7.121094 13.144531 7.351562 13.226562 C 7.460938 13.261719 9.191406 13.269531 9.324219 13.234375 C 9.574219 13.164062 9.636719 12.835938 9.421875 12.691406 L 9.339844 12.636719 L 8.351562 12.636719 C 7.484375 12.636719 7.355469 12.640625 7.300781 12.679688 Z M 7.300781 12.679688 "/>
<path style=" stroke:none;fill-rule:nonzero;fill:currentColor;fill-opacity:1;" d="M 10.851562 12.71875 C 10.679688 12.875 10.726562 13.152344 10.941406 13.226562 C 11 13.246094 11.226562 13.257812 11.601562 13.257812 C 12.230469 13.261719 12.292969 13.269531 12.449219 13.421875 C 12.570312 13.542969 12.644531 13.582031 12.738281 13.582031 C 12.867188 13.582031 12.988281 13.492188 13.027344 13.363281 C 13.0625 13.269531 13.058594 13.25 13.007812 13.144531 C 12.949219 13.019531 12.761719 12.855469 12.566406 12.761719 C 12.347656 12.652344 12.238281 12.636719 11.570312 12.636719 L 10.941406 12.636719 Z M 10.851562 12.71875 "/>
<path style=" stroke:none;fill-rule:nonzero;fill:currentColor;fill-opacity:1;" d="M 12.773438 14.78125 C 12.636719 14.890625 12.636719 14.894531 12.636719 15.914062 C 12.636719 16.929688 12.640625 16.960938 12.773438 17.066406 C 12.855469 17.132812 13 17.140625 13.105469 17.085938 C 13.253906 17.007812 13.257812 16.972656 13.257812 15.925781 C 13.257812 14.878906 13.253906 14.839844 13.105469 14.765625 C 13.003906 14.710938 12.855469 14.71875 12.773438 14.78125 Z M 12.773438 14.78125 "/>
<path style=" stroke:none;fill-rule:nonzero;fill:currentColor;fill-opacity:1;" d="M 0.679688 15.390625 C 0.636719 15.410156 0.574219 15.460938 0.546875 15.507812 C 0.5 15.585938 0.5 15.621094 0.503906 16.589844 L 0.511719 17.59375 L 0.589844 17.671875 C 0.742188 17.828125 1.003906 17.78125 1.085938 17.582031 C 1.113281 17.511719 1.121094 17.320312 1.121094 16.554688 C 1.121094 15.5 1.117188 15.492188 0.945312 15.398438 C 0.84375 15.34375 0.789062 15.34375 0.679688 15.390625 Z M 0.679688 15.390625 "/>
<path style=" stroke:none;fill-rule:nonzero;fill:currentColor;fill-opacity:1;" d="M 12.773438 18.371094 C 12.640625 18.476562 12.636719 18.507812 12.636719 19.527344 C 12.636719 20.542969 12.636719 20.546875 12.773438 20.65625 C 12.910156 20.765625 13.160156 20.703125 13.222656 20.546875 C 13.277344 20.417969 13.277344 18.597656 13.222656 18.480469 C 13.144531 18.324219 12.910156 18.261719 12.773438 18.371094 Z M 12.773438 18.371094 "/>
<path style=" stroke:none;fill-rule:nonzero;fill:currentColor;fill-opacity:1;" d="M 0.699219 18.972656 C 0.648438 18.992188 0.589844 19.039062 0.554688 19.085938 L 0.496094 19.175781 L 0.503906 20.183594 L 0.511719 21.1875 L 0.609375 21.277344 C 0.695312 21.359375 0.710938 21.363281 0.824219 21.351562 C 0.898438 21.347656 0.96875 21.320312 1 21.292969 C 1.117188 21.1875 1.121094 21.144531 1.121094 20.148438 C 1.121094 19.082031 1.121094 19.070312 0.9375 18.988281 C 0.816406 18.933594 0.8125 18.933594 0.699219 18.972656 Z M 0.699219 18.972656 "/>
<path style=" stroke:none;fill-rule:nonzero;fill:currentColor;fill-opacity:1;" d="M 12.792969 21.953125 C 12.691406 22.019531 12.660156 22.074219 12.632812 22.273438 C 12.605469 22.460938 12.566406 22.542969 12.457031 22.652344 C 12.320312 22.789062 12.207031 22.828125 11.9375 22.828125 C 11.808594 22.828125 11.660156 22.839844 11.609375 22.855469 C 11.359375 22.921875 11.296875 23.25 11.511719 23.394531 C 11.589844 23.445312 11.625 23.453125 11.886719 23.453125 C 12.347656 23.453125 12.636719 23.347656 12.898438 23.082031 C 13.128906 22.851562 13.296875 22.40625 13.25 22.152344 C 13.210938 21.953125 12.964844 21.847656 12.792969 21.953125 Z M 12.792969 21.953125 "/>
<path style=" stroke:none;fill-rule:nonzero;fill:currentColor;fill-opacity:1;" d="M 0.824219 22.570312 C 0.78125 22.605469 0.734375 22.675781 0.71875 22.730469 C 0.695312 22.8125 0.699219 22.839844 0.746094 22.941406 C 0.839844 23.132812 1.136719 23.335938 1.4375 23.414062 C 1.625 23.464844 2.746094 23.464844 2.839844 23.417969 C 2.921875 23.378906 3.015625 23.238281 3.015625 23.160156 C 3.015625 23.066406 2.945312 22.9375 2.871094 22.886719 C 2.8125 22.847656 2.726562 22.839844 2.167969 22.828125 C 1.46875 22.8125 1.457031 22.8125 1.289062 22.644531 C 1.179688 22.535156 1.117188 22.503906 1 22.503906 C 0.929688 22.503906 0.878906 22.523438 0.824219 22.570312 Z M 0.824219 22.570312 "/>
<path style=" stroke:none;fill-rule:nonzero;fill:currentColor;fill-opacity:1;" d="M 4.417969 22.847656 C 4.332031 22.863281 4.21875 22.992188 4.195312 23.09375 C 4.175781 23.195312 4.21875 23.300781 4.304688 23.382812 L 4.367188 23.4375 L 6.425781 23.4375 L 6.503906 23.367188 C 6.640625 23.234375 6.625 23.007812 6.472656 22.898438 C 6.390625 22.839844 6.386719 22.839844 5.433594 22.839844 C 4.90625 22.835938 4.449219 22.839844 4.417969 22.847656 Z M 4.417969 22.847656 "/>
<path style=" stroke:none;fill-rule:nonzero;fill:currentColor;fill-opacity:1;" d="M 8.011719 22.855469 C 7.753906 22.929688 7.707031 23.265625 7.929688 23.402344 C 8.011719 23.449219 8.050781 23.453125 9.003906 23.453125 L 9.992188 23.453125 L 10.082031 23.371094 C 10.253906 23.210938 10.207031 22.9375 9.992188 22.859375 C 9.890625 22.824219 8.132812 22.820312 8.011719 22.855469 Z M 8.011719 22.855469 "/>
</g>
</svg>
