<svg xmlns="http://www.w3.org/2000/svg" xmlns:xlink="http://www.w3.org/1999/xlink" version="1.1" width="1000" height="1000" viewBox="0 0 1000 1000" xml:space="preserve">
<desc>Created with Fabric.js 3.5.0</desc>
<defs>
</defs>
<rect x="0" y="0" width="100%" height="100%" fill="rgba(255,255,255,0)"/>
<g transform="matrix(3.5573 0 0 3.5573 403.8904 606.1122)" id="212882">
<path style="stroke: currentColor; stroke-width: 15; stroke-dasharray: none; stroke-linecap: butt; stroke-dashoffset: 0; stroke-linejoin: miter; stroke-miterlimit: 4; is-custom-font: none; font-file-url: none; fill: none; fill-rule: nonzero; opacity: 1;" vector-effect="non-scaling-stroke" transform=" translate(-79, -78.9999)" d="M 154.685 2.50049 H 154.711 L 154.738 2.49994 C 155.15 2.49126 155.491 2.81853 155.5 3.2304 L 155.5 3.23069 C 155.5 3.24095 155.5 3.25176 155.5 3.26283 L 155.499 3.28886 V 3.3149 V 154.686 C 155.499 155.135 155.135 155.5 154.685 155.5 H 3.31409 C 2.86449 155.5 2.5 155.135 2.5 154.686 V 3.3149 C 2.5 2.86483 2.86465 2.50049 3.31409 2.50049 H 154.685 Z" stroke-linecap="round"/>
</g>
<g transform="matrix(31.0374 0 0 31.0374 603.2772 362.8361)" id="120811">
<path style="stroke: none; stroke-width: 1; stroke-dasharray: none; stroke-linecap: butt; stroke-dashoffset: 0; stroke-linejoin: miter; stroke-miterlimit: 4; is-custom-font: none; font-file-url: none; fill: currentColor; fill-rule: nonzero; opacity: 1;" vector-effect="non-scaling-stroke" transform=" translate(-11.9985, -12.0001)" d="M 20.1209 12.3317 C 20.5973 11.8553 20.8602 11.2258 20.8602 10.5594 C 20.8602 9.88792 20.5982 9.255 20.1209 8.77863 L 16.0178 4.67553 C 15.0827 3.71693 13.3857 3.7161 12.4572 4.66799 L 3.8835 13.2417 C 3.40127 13.7114 3.13672 14.346 3.13672 15.03 C 3.13672 15.7081 3.40127 16.3402 3.87596 16.8023 L 5.44404 18.3704 H 4.18322 C 3.72108 18.3704 3.34602 18.7455 3.34602 19.2076 C 3.34602 19.6697 3.72108 20.0448 4.18322 20.0448 H 19.2528 C 19.7149 20.0448 20.09 19.6697 20.09 19.2076 C 20.09 18.7455 19.7149 18.3704 19.2528 18.3704 H 14.0822 L 20.1209 12.3317 Z M 13.6486 5.84425 C 13.8428 5.645 14.0722 5.60314 14.2296 5.60314 C 14.3912 5.60314 14.6247 5.645 14.8265 5.85179 L 18.9372 9.96243 C 19.0971 10.1223 19.1858 10.335 19.1858 10.5594 C 19.1858 10.7787 19.0979 10.988 18.9372 11.1479 L 16.4247 13.6603 L 11.1286 8.36422 L 13.6486 5.84425 Z" stroke-linecap="round"/>
</g>
</svg>
