<svg width="26" height="24" viewBox="0 0 26 26" fill="none" xmlns="http://www.w3.org/2000/svg">
	<g fill="currentColor">
		<path d="M20.0001 15C20.0001 13.9 20 15 20 13V11C21.1 11 18 11 20 11H18V13H6V10C4.9 10 5 10 4 10L4 13C4 12 4.00009 13.9 4.00009 15V20L4.67009 22H5.67009L6.34009 20H17.6701L18.3301 22H19.3301L20.0001 20V15ZM6.00009 15H18.0001V18H6.00009V15Z" />
		<path d="M22.66 2L20.54 4.12L18.41 2L17 3.41L19.13 5.53L17.01 7.65L18.42 9.06L20.54 6.94L22.66 9.06L24.07 7.65L21.95 5.53L24.07 3.41L22.66 2Z" />
	</g>
</svg>
