<svg xmlns="http://www.w3.org/2000/svg" xmlns:xlink="http://www.w3.org/1999/xlink" version="1.1" width="1000" height="1000" viewBox="0 0 1000 1000" xml:space="preserve">
<desc>Created with Fabric.js 3.5.0</desc>
<defs>
</defs>
<rect x="0" y="0" width="100%" height="100%" fill="rgba(255,255,255,0)"/>
<g transform="matrix(1.4931 0 0 1.4931 394.4968 605.5277)" id="816320">
<path style="stroke: none; stroke-width: 1; stroke-dasharray: none; stroke-linecap: butt; stroke-dashoffset: 0; stroke-linejoin: miter; stroke-miterlimit: 4; is-custom-font: none; font-file-url: none; fill: currentColor; fill-rule: nonzero; opacity: 1;" vector-effect="non-scaling-stroke" transform=" translate(-256, -256)" d="M 256 0 C 114.837 0 0 114.837 0 256 s 114.837 256 256 256 s 256 -114.837 256 -256 S 397.163 0 256 0 z M 256 21.333 c 129.387 0 234.667 105.28 234.667 234.667 c 0 40.363 -96.384 85.333 -234.667 85.333 c -28.629 0 -55.339 -2.005 -79.893 -5.44 c -3.435 -24.555 -5.44 -51.264 -5.44 -79.893 C 170.667 117.717 215.637 21.333 256 21.333 z M 208.512 26.176 C 173.184 67.435 149.333 153.707 149.333 256 c 0 26.688 1.621 52.309 4.651 76.309 C 72.683 317.205 21.333 285.419 21.333 256 C 21.333 142.869 101.824 48.192 208.512 26.176 z M 26.176 303.488 c 27.072 23.168 73.429 41.429 131.136 51.2 c 9.792 57.707 28.032 104.064 51.2 131.136 C 117.163 466.965 45.035 394.837 26.176 303.488 z M 256 490.667 c -29.419 0 -61.205 -51.349 -76.309 -132.651 c 24 3.029 49.621 4.651 76.309 4.651 c 102.293 0 188.565 -23.851 229.824 -59.179 C 463.808 410.176 369.131 490.667 256 490.667 z" stroke-linecap="round"/>
</g>
<g transform="matrix(35.5952 0 0 35.5952 647.7204 332.286)" id="765704">
<path style="stroke: none; stroke-width: 1; stroke-dasharray: none; stroke-linecap: butt; stroke-dashoffset: 0; stroke-linejoin: miter; stroke-miterlimit: 4; is-custom-font: none; font-file-url: none; fill: currentColor; fill-rule: nonzero; opacity: 1;" vector-effect="non-scaling-stroke" transform=" translate(-11.5013, -12)" d="M 7 16 C 7.55 16 8 16.45 8 17 C 8 18.1 7.1 19 6 19 C 5.83 19 5.67 18.98 5.5 18.95 C 5.81 18.4 6 17.74 6 17 C 6 16.45 6.45 16 7 16 Z M 18.67 3 C 18.41 3 18.16 3.1 17.96 3.29 L 9 12.25 L 11.75 15 L 20.71 6.04 C 21.1 5.65 21.1 5.02 20.71 4.63 L 19.37 3.29 C 19.17 3.09 18.92 3 18.67 3 Z M 7 14 C 5.34 14 4 15.34 4 17 C 4 18.31 2.84 19 2 19 C 2.92 20.22 4.49 21 6 21 C 8.21 21 10 19.21 10 17 C 10 15.34 8.66 14 7 14 Z" stroke-linecap="round"/>
</g>
</svg>
