<svg xmlns="http://www.w3.org/2000/svg" xmlns:xlink="http://www.w3.org/1999/xlink" version="1.1" width="1000" height="1000" viewBox="0 0 1000 1000" xml:space="preserve">
<desc>Created with Fabric.js 3.5.0</desc>
<defs>
</defs>
<rect x="0" y="0" width="100%" height="100%" fill="rgba(255,255,255,0)"/>
<g transform="matrix(37.6049 0 0 37.6049 648.1361 314.3114)" id="726094">
<path style="stroke: none; stroke-width: 1; stroke-dasharray: none; stroke-linecap: butt; stroke-dashoffset: 0; stroke-linejoin: miter; stroke-miterlimit: 4; is-custom-font: none; font-file-url: none; fill: currentColor; fill-rule: nonzero; opacity: 1;" vector-effect="non-scaling-stroke" transform=" translate(-11.9985, -12.0001)" d="M 20.1209 12.3317 C 20.5973 11.8553 20.8602 11.2258 20.8602 10.5594 C 20.8602 9.88792 20.5982 9.255 20.1209 8.77863 L 16.0178 4.67553 C 15.0827 3.71693 13.3857 3.7161 12.4572 4.66799 L 3.8835 13.2417 C 3.40127 13.7114 3.13672 14.346 3.13672 15.03 C 3.13672 15.7081 3.40127 16.3402 3.87596 16.8023 L 5.44404 18.3704 H 4.18322 C 3.72108 18.3704 3.34602 18.7455 3.34602 19.2076 C 3.34602 19.6697 3.72108 20.0448 4.18322 20.0448 H 19.2528 C 19.7149 20.0448 20.09 19.6697 20.09 19.2076 C 20.09 18.7455 19.7149 18.3704 19.2528 18.3704 H 14.0822 L 20.1209 12.3317 Z M 13.6486 5.84425 C 13.8428 5.645 14.0722 5.60314 14.2296 5.60314 C 14.3912 5.60314 14.6247 5.645 14.8265 5.85179 L 18.9372 9.96243 C 19.0971 10.1223 19.1858 10.335 19.1858 10.5594 C 19.1858 10.7787 19.0979 10.988 18.9372 11.1479 L 16.4247 13.6603 L 11.1286 8.36422 L 13.6486 5.84425 Z" stroke-linecap="round"/>
</g>
<g transform="matrix(1.4931 0 0 1.4931 394.4968 605.5277)" id="816320">
<path style="stroke: none; stroke-width: 1; stroke-dasharray: none; stroke-linecap: butt; stroke-dashoffset: 0; stroke-linejoin: miter; stroke-miterlimit: 4; is-custom-font: none; font-file-url: none; fill: currentColor; fill-rule: nonzero; opacity: 1;" vector-effect="non-scaling-stroke" transform=" translate(-256, -256)" d="M 256 0 C 114.837 0 0 114.837 0 256 s 114.837 256 256 256 s 256 -114.837 256 -256 S 397.163 0 256 0 z M 256 21.333 c 129.387 0 234.667 105.28 234.667 234.667 c 0 40.363 -96.384 85.333 -234.667 85.333 c -28.629 0 -55.339 -2.005 -79.893 -5.44 c -3.435 -24.555 -5.44 -51.264 -5.44 -79.893 C 170.667 117.717 215.637 21.333 256 21.333 z M 208.512 26.176 C 173.184 67.435 149.333 153.707 149.333 256 c 0 26.688 1.621 52.309 4.651 76.309 C 72.683 317.205 21.333 285.419 21.333 256 C 21.333 142.869 101.824 48.192 208.512 26.176 z M 26.176 303.488 c 27.072 23.168 73.429 41.429 131.136 51.2 c 9.792 57.707 28.032 104.064 51.2 131.136 C 117.163 466.965 45.035 394.837 26.176 303.488 z M 256 490.667 c -29.419 0 -61.205 -51.349 -76.309 -132.651 c 24 3.029 49.621 4.651 76.309 4.651 c 102.293 0 188.565 -23.851 229.824 -59.179 C 463.808 410.176 369.131 490.667 256 490.667 z" stroke-linecap="round"/>
</g>
</svg>
