<svg width="24" height="24" viewBox="0 0 24 24" fill="none" xmlns="http://www.w3.org/2000/svg">
<path d="M1.23438 6.76343C2.78238 7.89723 9.23472 11.431 9.3565 6.49464C9.47827 1.55823 12.2645 2.93958 13.9771 3.97835" stroke="currentColor" stroke-width="1.5" stroke-linecap="round" stroke-linejoin="round" stroke-dasharray="1 3"/>
<path d="M7.06055 14.0757H13.3887V7.70068C13.3887 7.18286 13.8083 6.76318 14.3262 6.76318C14.844 6.76318 15.2637 7.18286 15.2637 7.70068V14.0757H17.3C17.1958 13.7822 17.1387 13.4669 17.1387 13.1382C17.1387 11.5873 18.4003 10.3257 19.9512 10.3257C21.5021 10.3257 22.7637 11.5873 22.7637 13.1382C22.7637 14.6891 21.5021 15.9507 19.9512 15.9507H15.2637V20.6851H15.2626C15.2373 22.2142 13.9863 23.4507 12.4512 23.4507C11.9333 23.4507 11.5137 23.031 11.5137 22.5132C11.5137 21.9954 11.9333 21.5757 12.4512 21.5757C12.9681 21.5757 13.3887 21.1551 13.3887 20.6382C13.3887 20.1213 12.9681 19.7007 12.4512 19.7007C11.9343 19.7007 11.5137 20.1213 11.5137 20.6382C11.5137 21.156 11.094 21.5757 10.5762 21.5757C10.0583 21.5757 9.63867 21.156 9.63867 20.6382C9.63867 19.0873 10.9003 17.8257 12.4512 17.8257C12.7798 17.8257 13.0952 17.8828 13.3887 17.987V15.9507H7.06055C6.54272 15.9507 6.12305 15.531 6.12305 15.0132C6.12305 14.4954 6.54272 14.0757 7.06055 14.0757ZM20.8887 13.1382C20.8887 12.6213 20.4681 12.2007 19.9512 12.2007C19.4343 12.2007 19.0137 12.6213 19.0137 13.1382C19.0137 13.6551 19.4343 14.0757 19.9512 14.0757C20.4681 14.0757 20.8887 13.6551 20.8887 13.1382Z" fill="currentColor"/>
</svg>
