<svg width="24" height="24" viewBox="0 0 24 24" fill="none" xmlns="http://www.w3.org/2000/svg">
<path d="M15.6481 7.71956L10.6051 4.40199C9.79058 3.86611 8.46898 3.86589 7.65404 4.40199L2.61106 7.71956C1.7965 8.25543 1.79612 9.12487 2.61106 9.66096L7.65404 12.9785C8.4686 13.5144 9.79021 13.5146 10.6051 12.9785L15.6481 9.66096C16.4627 9.12509 16.4631 8.25565 15.6481 7.71956ZM9.89051 11.4165C9.47498 11.695 8.79956 11.6939 8.38579 11.4165L4.32305 8.69373L8.38579 5.97923C8.80131 5.70159 9.47673 5.70278 9.89051 5.97923L13.9532 8.69373L9.89051 11.4165Z" fill="currentColor"/>
<path d="M15.6501 11.5871L15.5449 11.5179L10.2458 15.049L10.2438 15.0487L9.8925 15.2841C9.47697 15.5626 8.80156 15.5615 8.38778 15.2841L4.32504 12.5613L4.32596 12.5607L2.73834 11.5046L2.61302 11.5871C1.79845 12.123 1.79808 12.9924 2.61302 13.5285L7.65599 16.8461C8.47055 17.382 9.79216 17.3822 10.6071 16.8461L15.6501 13.5285C16.4647 12.9927 16.465 12.1232 15.6501 11.5871Z" fill="currentColor"/>
<path d="M15.6481 15.339L15.5429 15.2698L10.2438 18.8009L10.2418 18.8006L9.89051 19.036C9.47498 19.3145 8.79956 19.3134 8.38579 19.036L4.32309 16.3132L4.324 16.3126L2.73639 15.2566L2.61106 15.339C1.7965 15.8749 1.79612 16.7444 2.61106 17.2805L7.65404 20.598C8.4686 21.1339 9.79021 21.1341 10.6051 20.598L15.6481 17.2805C16.4627 16.7446 16.4631 15.8751 15.6481 15.339Z" fill="currentColor"/>
<path fill-rule="evenodd" clip-rule="evenodd" d="M18.9782 9.27081V15.7295H17.3184L19.5316 18.5865L21.7447 15.7295H20.0849V9.27081H21.7447L19.5316 6.41382L17.3184 9.27081H18.9782Z" fill="currentColor"/>
</svg>
